# xmcd
#
# Track frame offsets:
#	182
#	20202
#	41495
#	63695
#	83957
#	111510
#	139470
#	161617
#	187100
#
# Disc length: 2826 seconds
#
# Revision: 66
# Processed by: cddbd v1.5.2PL0 Copyright (c) Steve Scherf et al.
# Submitted via: audiograbber 1.83.01
#
DISCID=8a0b0809
DTITLE=Depeche Mode - Violator
DYEAR=1990
DGENRE=New Wave
TTITLE0=World in My Eyes
TTITLE1=Sweetest Perfection
TTITLE2=Personal Jesus
TTITLE3=Halo
TTITLE4=Waiting for the Night
TTITLE5=Enjoy the Silence
TTITLE6=Policy of Truth
TTITLE7=Blue Dress
TTITLE8=Clean
EXTD=
EXTT0=
EXTT1=
EXTT2=
EXTT3=
EXTT4=
EXTT5=
EXTT6=
EXTT7=
EXTT8=
PLAYORDER=
